<svg width="25" height="24" viewBox="0 0 25 24" fill="none" xmlns="http://www.w3.org/2000/svg">
<path fill-rule="evenodd" clip-rule="evenodd" d="M3.5 4C3.5 2.34315 4.84315 1 6.5 1H18.5C20.1569 1 21.5 2.34315 21.5 4V22C21.5 22.3375 21.3298 22.6522 21.0473 22.8369C20.7649 23.0216 20.4084 23.0514 20.0992 22.9162L12.5 19.5915L4.90082 22.9162C4.59164 23.0514 4.23509 23.0216 3.95265 22.8369C3.67022 22.6522 3.5 22.3375 3.5 22V4ZM6.5 3C5.94772 3 5.5 3.44772 5.5 4V20.471L12.0992 17.5838C12.3547 17.4721 12.6453 17.4721 12.9008 17.5838L19.5 20.471V4C19.5 3.44772 19.0523 3 18.5 3H6.5Z" fill="#7A7A7A"/>
</svg>
