<svg width="16" height="16" viewBox="0 0 16 16" fill="none" xmlns="http://www.w3.org/2000/svg">
<path fill-rule="evenodd" clip-rule="evenodd" d="M7.18506 5.25C7.18506 4.88181 7.51338 4.58333 7.91839 4.58333H13.7851C14.1901 4.58333 14.5184 4.88181 14.5184 5.25C14.5184 5.61819 14.1901 5.91667 13.7851 5.91667H7.91839C7.51338 5.91667 7.18506 5.61819 7.18506 5.25Z" fill="#7A7A7A"/>
<path fill-rule="evenodd" clip-rule="evenodd" d="M8.6665 11.4167C8.6665 11.7849 8.33818 12.0833 7.93317 12.0833L2.0665 12.0833C1.66149 12.0833 1.33317 11.7849 1.33317 11.4167C1.33317 11.0485 1.6615 10.75 2.0665 10.75L7.93317 10.75C8.33818 10.75 8.6665 11.0485 8.6665 11.4167Z" fill="#7A7A7A"/>
<path fill-rule="evenodd" clip-rule="evenodd" d="M4 5.83333C4.27614 5.83333 4.5 5.60948 4.5 5.33333C4.5 5.05719 4.27614 4.83333 4 4.83333C3.72386 4.83333 3.5 5.05719 3.5 5.33333C3.5 5.60948 3.72386 5.83333 4 5.83333ZM4 7.33333C5.10457 7.33333 6 6.4379 6 5.33333C6 4.22876 5.10457 3.33333 4 3.33333C2.89543 3.33333 2 4.22876 2 5.33333C2 6.4379 2.89543 7.33333 4 7.33333Z" fill="#7A7A7A"/>
<path fill-rule="evenodd" clip-rule="evenodd" d="M11.8518 10.8333C11.5757 10.8333 11.3518 11.0572 11.3518 11.3333C11.3518 11.6095 11.5757 11.8333 11.8518 11.8333C12.1279 11.8333 12.3518 11.6095 12.3518 11.3333C12.3518 11.0572 12.1279 10.8333 11.8518 10.8333ZM11.8518 9.33333C10.7472 9.33333 9.85181 10.2288 9.85181 11.3333C9.85181 12.4379 10.7472 13.3333 11.8518 13.3333C12.9564 13.3333 13.8518 12.4379 13.8518 11.3333C13.8518 10.2288 12.9564 9.33333 11.8518 9.33333Z" fill="#7A7A7A"/>
</svg>
