<svg width="25" height="24" viewBox="0 0 25 24" fill="none" xmlns="http://www.w3.org/2000/svg">
<path fill-rule="evenodd" clip-rule="evenodd" d="M5.89404 8.55577C6.34677 6.20157 8.40673 4.5 10.8041 4.5H14.1959C16.5933 4.5 18.6532 6.20156 19.106 8.55576L20.982 18.3112C21.0383 18.6041 20.961 18.9069 20.771 19.1368C20.581 19.3668 20.2983 19.5 20 19.5H5.00001C4.70171 19.5 4.41899 19.3668 4.22902 19.1368C4.03905 18.9069 3.96167 18.6041 4.018 18.3112L5.89404 8.55577ZM10.8041 6.5C9.36567 6.5 8.12969 7.52094 7.85805 8.93346L6.21064 17.5H18.7894L17.142 8.93346C16.8703 7.52094 15.6343 6.5 14.1959 6.5H10.8041Z" fill="#7A7A7A"/>
<path fill-rule="evenodd" clip-rule="evenodd" d="M22.5 19.5H2.5V17.5H22.5V19.5Z" fill="#7A7A7A"/>
<path fill-rule="evenodd" clip-rule="evenodd" d="M8.5 18.5C8.5 17.9477 8.94772 17.5 9.5 17.5H15.5C16.0523 17.5 16.5 17.9477 16.5 18.5V19.5C16.5 21.1569 15.1569 22.5 13.5 22.5H11.5C9.84315 22.5 8.5 21.1569 8.5 19.5V18.5ZM10.5 19.5C10.5 20.0523 10.9477 20.5 11.5 20.5H13.5C14.0523 20.5 14.5 20.0523 14.5 19.5H10.5Z" fill="#7A7A7A"/>
<path fill-rule="evenodd" clip-rule="evenodd" d="M9.5 5.5C9.5 6.05228 9.94772 6.5 10.5 6.5H14.5C15.0523 6.5 15.5 6.05228 15.5 5.5V4.5C15.5 2.84315 14.1569 1.5 12.5 1.5C10.8431 1.5 9.5 2.84315 9.5 4.5V5.5ZM11.5 4.5C11.5 3.94772 11.9477 3.5 12.5 3.5C13.0523 3.5 13.5 3.94772 13.5 4.5H11.5Z" fill="#7A7A7A"/>
<circle cx="18.5" cy="7" r="3.5" fill="#FB4141" stroke="white"/>
</svg>
